<?xml version="1.0" encoding="iso-8859-1"?>
<!-- Generator: Adobe Illustrator 21.0.0, SVG Export Plug-In . SVG Version: 6.00 Build 0)  -->
<svg version="1.1" id="Capa_1" xmlns="http://www.w3.org/2000/svg" xmlns:xlink="http://www.w3.org/1999/xlink" x="0px" y="0px"
	 viewBox="0 0 512.001 512.001" style="enable-background:new 0 0 512.001 512.001;" xml:space="preserve">
<path style="fill:#FE4583;" d="M125.753,224.884h386.248v-53.376c0-2.479-2.01-4.489-4.489-4.489h-381.76V224.884z"/>
<polygon style="fill:#EA2D88;" points="125.753,167.019 125.753,224.884 205.066,224.884 262.93,167.019 "/>
<rect x="125.752" y="202.216" style="fill:#FE715A;" width="386.245" height="57.864"/>
<polygon style="fill:#F75B4B;" points="187.501,242.45 227.732,202.218 125.753,202.218 125.753,260.083 205.133,260.083 "/>
<rect x="125.752" y="242.949" style="fill:#FECF54;" width="386.245" height="57.864"/>
<polygon style="fill:#F9BD38;" points="188.001,242.95 125.753,242.95 125.753,300.814 245.864,300.814 "/>
<path style="fill:#85C255;" d="M125.753,319.414h381.76c2.479,0,4.489-2.01,4.489-4.489v-33.743H125.753V319.414z"/>
<polygon style="fill:#00B764;" points="226.232,281.182 125.753,281.182 125.753,319.414 264.463,319.414 "/>
<g>
	<path style="fill:#7CCAFD;" d="M439.928,254.86c2.707,1.333,2.273,5.259-0.61,6.138c-11.821,3.596-20.222,12.017-24.995,25.543
		c-1.002,2.842-5.042,2.935-6.158,0.145c-4.929-12.265-14.146-20.439-27.072-25.078c-2.749-0.982-2.986-4.784-0.362-6.065
		c12.141-5.972,21.389-14.921,27.31-27.31c1.209-2.552,4.908-2.449,5.993,0.165C418.921,240.146,427.683,248.867,439.928,254.86z"/>
	<path style="fill:#7CCAFD;" d="M497.348,386.977c1.819,0.889,1.529,3.534-0.403,4.123c-7.936,2.408-13.578,8.06-16.781,17.142
		c-0.672,1.901-3.379,1.963-4.133,0.093c-3.296-8.235-9.496-13.722-18.165-16.832c-1.839-0.661-2.005-3.214-0.248-4.071
		c8.153-4.009,14.363-10.013,18.331-18.331c0.816-1.715,3.296-1.643,4.03,0.114C483.254,377.098,489.133,382.947,497.348,386.977z"
		/>
	<path style="fill:#7CCAFD;" d="M48.899,412.809c1.819,0.889,1.529,3.534-0.403,4.123c-7.936,2.408-13.577,8.06-16.781,17.142
		c-0.672,1.901-3.379,1.963-4.133,0.093c-3.296-8.235-9.496-13.722-18.165-16.832c-1.839-0.661-2.005-3.214-0.248-4.071
		c8.153-4.009,14.363-10.013,18.331-18.331c0.816-1.715,3.296-1.643,4.03,0.114C34.805,402.931,40.684,408.779,48.899,412.809z"/>
	<path style="fill:#7CCAFD;" d="M345.454,95.588c1.819,0.889,1.529,3.534-0.403,4.123c-7.936,2.408-13.577,8.06-16.781,17.142
		c-0.672,1.901-3.379,1.963-4.133,0.093c-3.296-8.235-9.496-13.722-18.165-16.832c-1.839-0.661-2.005-3.214-0.248-4.071
		c8.153-4.009,14.363-10.013,18.331-18.331c0.816-1.715,3.296-1.643,4.03,0.114C331.36,85.709,337.239,91.558,345.454,95.588z"/>
</g>
<path style="fill:#F8D46E;" d="M269.941,123.456c2.914,2.666,3.028,7.223,0.238,10.013L161.197,242.45l108.981,108.981
	c2.8,2.8,2.666,7.357-0.258,10.023c-28.664,26.204-66.823,42.189-108.723,42.189c-89.37,0-161.752-72.734-161.194-162.227
	C0.561,152.44,72.22,81.256,161.197,81.256C203.107,81.256,241.277,97.251,269.941,123.456z"/>
<path style="fill:#F9BD38;" d="M192.022,392.344c-89.37,0-161.752-72.734-161.194-162.227c0.398-63.487,37-117.906,90.258-143.881
	C51.623,103.863,0.474,166.298,0.003,241.416c-0.558,89.494,71.824,162.227,161.194,162.227c25.327,0,49.283-5.849,70.606-16.257
	C219.078,390.617,205.753,392.344,192.022,392.344z"/>
<circle style="fill:#EE8E3E;" cx="154.994" cy="152.556" r="22.732"/>
<g>
</g>
<g>
</g>
<g>
</g>
<g>
</g>
<g>
</g>
<g>
</g>
<g>
</g>
<g>
</g>
<g>
</g>
<g>
</g>
<g>
</g>
<g>
</g>
<g>
</g>
<g>
</g>
<g>
</g>
</svg>
