<?xml version="1.0" encoding="iso-8859-1"?>
<!-- Generator: Adobe Illustrator 19.0.0, SVG Export Plug-In . SVG Version: 6.00 Build 0)  -->
<svg version="1.1" id="Capa_1" xmlns="http://www.w3.org/2000/svg" xmlns:xlink="http://www.w3.org/1999/xlink" x="0px" y="0px"
	 viewBox="0 0 512 512" style="enable-background:new 0 0 512 512;" xml:space="preserve">
<circle style="fill:#9330B2;" cx="256" cy="256" r="256"/>
<path style="fill:#451151;" d="M511.806,265.508L381.059,134.964c-5.029-5.2-12.076-8.435-19.882-8.435h-2.581
	c-15.281,0-27.669,12.388-27.669,27.669v44.367L209.095,76.727c-5.982-6.439-14.659-10.344-24.191-9.852
	c-16.508,0.852-29.244,14.937-29.244,31.467V275.55l-7.599-5.698c-14.207-10.653-34.547-7.745-45.2,6.462l0,0
	c-10.653,14.207-8.334,33.413,4.358,49.501c0,0,51.763,72.505,70.679,91.499c0,0,48.59,48.59,94.17,94.169
	C402.829,503.382,506.998,397.134,511.806,265.508z"/>
<path style="fill:#FFDCA8;" d="M361.177,126.529h-2.581c-15.281,0-27.669,12.388-27.669,27.669v68.058
	c-3.104-13.747-15.446-21.824-30.096-21.824l0,0c-11.628,0-21.806,6.521-27.063,16.084c-3.104-13.747-15.446-24.097-30.096-24.097
	l0,0c-11.091,0-20.862,5.932-26.303,14.78V97.689c0-16.97-13.885-30.855-30.855-30.855l0,0c-16.971,0-30.855,13.885-30.855,30.855
	V275.55l-7.599-5.698c-14.207-10.653-34.547-7.745-45.2,6.462l0,0c-10.653,14.207-8.334,33.413,4.358,49.501
	c0,0,51.763,72.505,70.679,91.499c9.84,9.881,31.137,17.061,49.864,17.061h70.189c49.992,0,90.895-40.903,90.895-90.895V154.197
	C388.846,138.917,376.458,126.529,361.177,126.529z"/>
<path style="fill:#FFC56E;" d="M388.848,154.201v189.284c0,49.991-40.908,90.89-90.9,90.89H273.77V216.511
	c2.623-4.786,6.49-8.806,11.141-11.629s10.107-4.451,15.917-4.451c14.654,0,26.991,8.078,30.102,21.823v-68.053
	c0-15.286,12.385-27.671,27.661-27.671h2.584C376.462,126.53,388.848,138.916,388.848,154.201z"/>
<g>
</g>
<g>
</g>
<g>
</g>
<g>
</g>
<g>
</g>
<g>
</g>
<g>
</g>
<g>
</g>
<g>
</g>
<g>
</g>
<g>
</g>
<g>
</g>
<g>
</g>
<g>
</g>
<g>
</g>
</svg>
