<?xml version="1.0" encoding="iso-8859-1"?>
<!-- Generator: Adobe Illustrator 19.0.0, SVG Export Plug-In . SVG Version: 6.00 Build 0)  -->
<svg version="1.1" id="Capa_1" xmlns="http://www.w3.org/2000/svg" xmlns:xlink="http://www.w3.org/1999/xlink" x="0px" y="0px"
	 viewBox="0 0 512 512" style="enable-background:new 0 0 512 512;" xml:space="preserve">
<circle style="fill:#004EB0;" cx="256" cy="256" r="256"/>
<path style="fill:#002D6B;" d="M511.55,271.016L277.277,36.743l-7.632,34.734l-34.923-34.734l0.119,171.319
	c-5.615,5.605-9.089,13.354-9.089,21.914c0,6.401,1.943,12.347,5.27,17.284l-15.098,68.714c-6.747-7.621-15.866-13.26-26.546-15.607
	l-0.502-0.11c-26.831-5.896-53.458,11.138-59.353,37.97l-9.479,43.143c-4.108,18.697,2.926,37.285,16.642,48.838l78.548,78.548
	C228.511,510.88,242.124,512,256,512C392.343,512,503.774,405.41,511.55,271.016z"/>
<path style="fill:#AEADB3;" d="M323.123,300.257l-0.502,0.11c-10.68,2.347-19.799,7.985-26.546,15.606l-61.352-279.23l0.134,193.233
	h20.427l28.779,126.49c0.164,1.084,0.352,2.169,0.59,3.255l9.48,43.143c5.895,26.831,32.522,43.865,59.353,37.969l0.502-0.11
	c26.831-5.895,43.865-32.522,37.97-59.353l-9.479-43.143C376.581,311.396,349.955,294.362,323.123,300.257z M371.89,385.779
	c3.464,15.767-6.545,31.413-22.312,34.878l-0.502,0.11c-15.767,3.464-31.413-6.545-34.878-22.312l-8.911-40.556l-0.568-2.587
	c-3.464-15.767,6.545-31.413,22.312-34.878l0.502-0.11c15.767-3.464,31.413,6.545,34.878,22.312L371.89,385.779z"/>
<path style="fill:#78777F;" d="M391.96,381.37l-9.48-43.14c-5.9-26.83-32.53-43.87-59.36-37.97l-0.5,0.11
	c-10.68,2.34-19.8,7.98-26.54,15.6l-14.76-67.19l-4.18-19l-5.98-27.2l-15.16-69v99.56l2.48,10.89l3.73,16.43l21.85,96.01
	c0.17,1.08,0.35,2.16,0.59,3.25l9.48,43.14c5.9,26.84,32.52,43.87,59.36,37.97l0.5-0.11C380.82,434.83,397.85,408.2,391.96,381.37z
	 M349.58,420.66l-0.5,0.11c-15.77,3.46-31.42-6.55-34.88-22.31l-8.91-40.56l-0.57-2.59c-3.47-15.77,6.54-31.41,22.31-34.88l0.5-0.11
	c15.77-3.46,31.42,6.55,34.88,22.32l9.48,43.14C375.35,401.55,365.34,417.19,349.58,420.66z"/>
<path style="fill:#E1E1E3;" d="M129.523,338.227l-9.479,43.143c-5.895,26.831,11.138,53.458,37.97,59.353l0.502,0.11
	c26.831,5.895,53.458-11.138,59.353-37.969l9.48-43.143c0.239-1.086,0.426-2.171,0.59-3.255l28.779-126.49h20.427l0.134-193.233
	l-61.353,279.231c-6.747-7.621-15.866-13.26-26.546-15.606l-0.502-0.11C162.045,294.362,135.419,311.396,129.523,338.227z
	 M149.59,342.636c3.464-15.767,19.111-25.776,34.878-22.312l0.502,0.11c15.767,3.464,25.776,19.111,22.312,34.878l-0.568,2.587
	l-8.911,40.556c-3.464,15.767-19.111,25.776-34.878,22.312l-0.502-0.11c-15.767-3.464-25.776-19.111-22.312-34.878L149.59,342.636z"
	/>
<path style="fill:#C8C6CC;" d="M256,133.58v99.56l0.72-3.16h20.42v-0.2l0.02-23.06l0.12-169.98L256,133.58z"/>
<circle style="fill:#57555C;" cx="256.72" cy="229.98" r="30.964"/>
<path style="fill:#2A2A2C;" d="M287.68,229.98c0,17.1-13.86,30.96-30.96,30.96c-0.24,0-0.48,0-0.72-0.01v-61.91
	c0.24-0.01,0.48-0.01,0.72-0.01C273.82,199.01,287.68,212.87,287.68,229.98z"/>
<circle style="fill:#FFFFFF;" cx="256.72" cy="229.98" r="14.159"/>
<path style="fill:#C8C6CC;" d="M270.88,229.98c0,7.22-5.41,13.19-12.4,14.05c-0.58,0.07-1.16,0.11-1.76,0.11
	c-0.24,0-0.48-0.01-0.72-0.02v-28.28c0.24-0.01,0.48-0.02,0.72-0.02C264.54,215.82,270.88,222.16,270.88,229.98z"/>
<g>
</g>
<g>
</g>
<g>
</g>
<g>
</g>
<g>
</g>
<g>
</g>
<g>
</g>
<g>
</g>
<g>
</g>
<g>
</g>
<g>
</g>
<g>
</g>
<g>
</g>
<g>
</g>
<g>
</g>
</svg>
